<svg id="svg" version="1.1" xmlns="http://www.w3.org/2000/svg" xmlns:xlink="http://www.w3.org/1999/xlink" width="400" height="400" viewBox="60,60, 290,290"><g id="svgg"><path id="path1" d="M145.703 108.405 C 144.736 108.671,140.078 110.324,135.352 112.077 C 121.553 117.196,121.163 117.313,119.757 116.719 C 116.121 115.183,111.218 116.550,109.086 119.694 L 107.820 121.561 99.516 124.420 C 94.948 125.993,88.926 128.104,86.133 129.111 C 83.340 130.117,79.131 131.594,76.779 132.392 C 71.582 134.157,70.690 135.003,71.428 137.465 C 72.526 141.129,73.585 141.234,81.969 138.513 C 85.548 137.351,92.344 135.233,97.070 133.806 C 101.797 132.379,106.347 130.948,107.182 130.627 C 108.596 130.082,108.757 130.094,109.526 130.797 C 115.102 135.898,125.000 132.304,125.000 125.178 C 125.000 124.258,124.456 124.477,141.797 118.403 C 152.010 114.826,151.848 114.895,152.086 113.988 C 152.961 110.641,149.279 107.421,145.703 108.405 M249.722 109.082 C 248.250 110.122,247.656 111.271,247.656 113.076 C 247.656 115.007,248.004 115.211,256.294 118.122 C 260.459 119.584,266.372 121.666,269.434 122.748 L 275.000 124.716 275.000 126.049 C 275.000 132.201,283.166 135.425,289.102 131.615 C 290.725 130.574,291.135 130.467,292.261 130.789 C 295.655 131.763,303.531 134.233,313.578 137.476 C 322.963 140.505,324.748 140.971,325.492 140.588 C 328.872 138.846,329.485 135.274,326.649 133.849 C 326.064 133.556,317.986 130.704,308.697 127.511 L 291.809 121.706 290.686 119.900 C 288.614 116.566,284.925 115.383,280.488 116.627 L 278.308 117.239 272.079 115.024 C 268.653 113.805,263.137 111.772,259.821 110.506 C 253.195 107.975,251.605 107.751,249.722 109.082 M254.492 133.442 C 234.265 141.158,229.346 143.149,229.801 143.435 C 230.061 143.598,231.610 144.273,233.244 144.934 L 236.215 146.136 243.205 143.567 C 247.050 142.155,250.811 140.750,251.563 140.446 C 252.314 140.141,255.291 139.005,258.177 137.921 C 264.408 135.581,263.943 135.987,264.138 132.715 C 264.333 129.438,265.152 129.376,254.492 133.442 M135.156 133.159 L 135.156 135.849 148.880 140.980 L 162.604 146.111 164.603 145.352 C 165.702 144.935,167.198 144.290,167.928 143.919 L 169.254 143.245 168.319 142.777 C 167.804 142.520,164.307 141.144,160.547 139.720 C 156.787 138.296,149.784 135.632,144.985 133.800 C 134.364 129.745,135.156 129.797,135.156 133.159 M127.934 134.369 C 122.576 140.298,112.246 140.559,103.786 134.979 L 102.689 134.255 102.765 142.485 C 102.807 147.011,102.949 150.873,103.081 151.067 C 103.406 151.547,105.733 152.456,112.891 154.896 C 118.104 156.674,124.485 158.968,149.414 168.031 C 151.777 168.891,153.887 169.602,154.102 169.611 C 154.668 169.638,182.644 157.485,195.117 151.795 C 199.884 149.620,199.282 149.619,204.060 151.811 C 216.374 157.459,244.505 169.531,245.354 169.531 C 245.770 169.531,250.457 167.933,255.770 165.980 C 261.083 164.027,268.682 161.235,272.656 159.776 C 276.631 158.317,283.047 156.059,286.914 154.759 C 290.781 153.459,294.604 152.117,295.410 151.778 L 296.875 151.161 296.875 142.766 L 296.875 134.370 295.310 135.504 C 288.675 140.311,279.731 140.314,273.344 135.511 L 271.289 133.967 271.094 141.073 L 270.898 148.178 269.727 148.549 C 269.082 148.752,264.775 150.323,260.156 152.040 C 245.421 157.516,242.108 158.621,241.245 158.350 C 240.796 158.209,236.387 156.255,231.445 154.009 C 226.504 151.762,219.736 148.692,216.406 147.185 C 213.076 145.679,208.125 143.411,205.404 142.145 C 199.202 139.260,200.757 139.036,188.654 144.561 C 182.971 147.156,175.747 150.396,172.602 151.762 C 169.457 153.127,164.747 155.223,162.135 156.418 L 157.386 158.591 151.447 156.414 C 148.180 155.217,143.311 153.465,140.625 152.521 C 137.939 151.577,134.248 150.221,132.422 149.508 L 129.102 148.212 128.906 140.861 L 128.711 133.509 127.934 134.369 M70.508 152.778 C 68.275 153.456,67.188 154.881,67.188 157.127 C 67.188 159.270,68.141 159.838,77.199 163.082 C 81.898 164.765,88.994 167.319,92.969 168.756 L 100.195 171.370 100.461 173.223 C 101.369 179.548,109.337 182.590,114.453 178.565 C 115.205 177.973,116.016 177.373,116.256 177.231 C 116.496 177.088,119.572 178.039,123.092 179.343 C 142.806 186.645,142.148 186.510,146.388 184.139 C 151.274 181.406,150.049 180.415,134.682 174.674 C 128.175 172.243,121.621 169.791,120.117 169.225 C 118.077 168.457,116.887 167.692,115.430 166.212 C 112.712 163.451,109.256 162.583,105.483 163.714 C 104.118 164.123,103.205 163.839,88.641 158.482 C 70.933 151.969,72.033 152.315,70.508 152.778 M319.727 155.235 C 315.430 156.815,309.858 158.913,307.346 159.898 C 298.670 163.298,295.752 164.156,294.429 163.695 C 290.912 162.469,287.019 163.497,284.375 166.351 C 282.450 168.428,283.724 167.884,262.235 175.807 C 250.482 180.140,249.527 180.836,252.051 183.223 C 255.944 186.904,256.733 186.785,275.867 179.635 L 283.212 176.891 284.477 177.959 C 289.840 182.486,298.384 180.157,299.439 173.880 C 299.570 173.099,299.752 172.185,299.843 171.848 C 299.945 171.469,301.907 170.546,304.984 169.430 C 325.917 161.841,330.770 160.034,331.525 159.546 C 333.355 158.364,332.901 154.722,330.754 153.362 C 328.759 152.100,327.820 152.259,319.727 155.235 M198.250 159.646 C 197.610 159.992,194.006 161.638,190.242 163.304 C 186.478 164.970,180.410 167.682,176.758 169.332 C 173.105 170.982,167.393 173.529,164.063 174.992 C 160.732 176.455,156.718 178.275,155.142 179.035 L 152.276 180.418 153.970 181.177 C 160.594 184.142,158.383 184.456,171.511 178.685 C 177.190 176.189,184.824 172.863,188.477 171.294 C 192.129 169.724,196.152 167.974,197.418 167.404 C 200.065 166.212,199.450 166.082,206.641 169.347 C 209.326 170.566,214.512 172.849,218.164 174.419 C 221.816 175.989,227.529 178.451,230.859 179.889 C 240.380 184.002,239.317 183.806,243.282 182.178 C 247.715 180.357,247.705 180.377,244.841 179.128 C 243.489 178.538,241.592 177.697,240.625 177.259 C 228.741 171.873,225.812 170.564,222.461 169.140 C 220.313 168.228,214.386 165.569,209.290 163.233 C 198.996 158.513,199.838 158.786,198.250 159.646 M324.023 170.096 C 321.230 171.228,316.258 173.170,312.973 174.412 C 305.535 177.226,304.797 178.123,308.171 180.253 L 309.739 181.243 317.272 178.559 C 321.415 177.083,325.815 175.490,327.051 175.019 L 329.297 174.163 329.297 171.066 C 329.297 169.362,329.253 167.985,329.199 168.004 C 329.146 168.024,326.816 168.965,324.023 170.096 M70.313 171.429 L 70.313 174.498 75.488 176.346 C 78.335 177.362,82.789 178.912,85.387 179.789 L 90.110 181.385 91.539 180.295 C 94.728 177.863,93.811 177.037,83.789 173.308 C 81.211 172.348,77.296 170.842,75.090 169.961 C 69.992 167.926,70.313 167.827,70.313 171.429 M191.797 178.773 C 183.867 182.408,157.693 193.887,156.445 194.278 C 155.949 194.433,153.758 193.749,150.454 192.409 L 145.245 190.295 142.806 191.213 C 141.465 191.718,137.920 193.093,134.930 194.269 C 125.020 198.165,122.285 199.219,122.079 199.219 C 121.967 199.219,121.875 195.176,121.875 190.234 C 121.875 185.293,121.768 181.250,121.638 181.250 C 121.508 181.250,120.761 181.754,119.978 182.370 C 113.620 187.372,105.911 187.475,99.008 182.650 L 96.458 180.867 96.693 191.898 C 96.975 205.118,97.326 206.544,101.168 210.084 C 106.005 214.542,110.921 214.615,122.656 210.404 C 138.788 204.615,146.692 201.819,148.279 201.339 C 149.982 200.824,152.835 202.462,155.959 205.750 L 157.035 206.883 156.043 209.789 C 149.071 230.215,134.373 280.835,134.376 284.406 C 134.381 288.362,139.102 290.522,142.618 288.177 C 144.167 287.144,144.372 286.566,148.064 272.852 C 153.281 253.467,165.221 219.141,166.746 219.141 C 166.956 219.141,173.295 221.602,180.832 224.609 L 194.535 230.078 199.716 230.078 L 204.897 230.078 211.140 227.508 C 217.790 224.770,229.303 220.190,231.749 219.309 L 233.225 218.777 234.218 221.010 C 239.723 233.389,248.589 260.186,253.849 280.344 C 255.694 287.419,255.781 287.594,257.976 288.656 C 260.980 290.111,264.881 288.414,265.445 285.406 C 265.695 284.074,260.942 265.563,257.006 252.539 C 255.903 248.887,254.596 244.492,254.102 242.773 C 251.698 234.401,244.722 212.634,242.690 207.163 C 242.476 206.588,248.797 201.172,249.683 201.172 C 250.045 201.172,254.088 202.509,258.667 204.142 C 274.555 209.811,284.964 213.188,287.331 213.441 C 293.179 214.066,299.306 210.967,301.886 206.079 L 302.930 204.102 303.049 192.647 L 303.169 181.192 300.901 182.784 C 294.200 187.488,286.426 187.290,279.688 182.241 L 278.320 181.217 278.215 190.218 C 278.158 195.168,277.967 199.219,277.793 199.219 C 277.618 199.219,272.357 197.203,266.101 194.740 L 254.728 190.262 251.876 191.458 C 245.585 194.095,243.877 194.542,242.277 193.969 C 240.071 193.180,212.315 180.941,203.770 176.989 C 199.449 174.991,200.337 174.859,191.797 178.773 M206.152 190.074 C 209.514 191.489,213.572 193.305,215.169 194.108 L 218.071 195.568 213.430 197.558 C 206.759 200.418,200.700 202.730,199.867 202.732 C 199.244 202.734,184.079 196.623,182.465 195.719 C 181.790 195.342,181.730 195.372,192.383 190.652 C 200.811 186.917,198.849 187.000,206.152 190.074 M195.117 239.218 C 178.023 244.625,181.934 270.218,199.868 270.303 C 215.577 270.377,221.521 248.733,207.975 240.782 C 204.524 238.756,198.785 238.058,195.117 239.218 M202.152 249.781 C 205.950 251.368,206.058 256.868,202.329 258.797 C 197.267 261.414,192.338 255.474,195.980 251.146 C 197.636 249.178,199.646 248.734,202.152 249.781 " stroke="none" fill="#ffffff" fill-rule="evenodd"></path></g></svg>